<svg aria-hidden="true" style="position: absolute; width: 0; height: 0; overflow: hidden;" version="1.1" xmlns="http://www.w3.org/2000/svg" xmlns:xlink="http://www.w3.org/1999/xlink">
<defs>
<symbol id="ic_baseline-star" viewBox="0 0 32 32">
<path fill="#fff" d="M16 23.027l8.24 4.973-2.187-9.373 7.28-6.307-9.587-0.813-3.747-8.84-3.747 8.84-9.587 0.813 7.28 6.307-2.187 9.373 8.24-4.973z"></path>
</symbol>
<symbol id="ph_arrow-down-left-light" viewBox="0 0 32 32">
<path   d="M24.525 8.525l-14.712 14.725h11.188c0.199 0 0.39 0.079 0.53 0.22s0.22 0.331 0.22 0.53c0 0.199-0.079 0.39-0.22 0.53s-0.331 0.22-0.53 0.22h-13c-0.199 0-0.39-0.079-0.53-0.22s-0.22-0.331-0.22-0.53v-13c0-0.199 0.079-0.39 0.22-0.53s0.331-0.22 0.53-0.22c0.199 0 0.39 0.079 0.53 0.22s0.22 0.331 0.22 0.53v11.188l14.725-14.713c0.139-0.139 0.328-0.217 0.525-0.217s0.386 0.078 0.525 0.217c0.139 0.139 0.217 0.328 0.217 0.525s-0.078 0.386-0.217 0.525z"></path>
</symbol>
<symbol id="ph_arrow-down-light" viewBox="0 0 32 32">
<path   d="M25.525 18.525l-9 9c-0.068 0.071-0.149 0.128-0.239 0.166s-0.187 0.059-0.286 0.059c-0.098 0-0.195-0.020-0.286-0.059s-0.172-0.095-0.239-0.166l-9-9c-0.139-0.139-0.217-0.328-0.217-0.525s0.078-0.386 0.217-0.525c0.139-0.139 0.328-0.217 0.525-0.217s0.386 0.078 0.525 0.217l7.725 7.712v-20.187c0-0.199 0.079-0.39 0.22-0.53s0.331-0.22 0.53-0.22c0.199 0 0.39 0.079 0.53 0.22s0.22 0.331 0.22 0.53v20.187l7.725-7.712c0.139-0.139 0.328-0.217 0.525-0.217s0.386 0.078 0.525 0.217c0.139 0.139 0.217 0.328 0.217 0.525s-0.078 0.386-0.217 0.525z"></path>
</symbol>
<symbol id="ph_arrow-down-right-light" viewBox="0 0 32 32">
<path   d="M24.75 11v13c0 0.199-0.079 0.39-0.22 0.53s-0.331 0.22-0.53 0.22h-13c-0.199 0-0.39-0.079-0.53-0.22s-0.22-0.331-0.22-0.53c0-0.199 0.079-0.39 0.22-0.53s0.331-0.22 0.53-0.22h11.187l-14.712-14.725c-0.139-0.139-0.217-0.328-0.217-0.525s0.078-0.386 0.217-0.525c0.139-0.139 0.328-0.217 0.525-0.217s0.386 0.078 0.525 0.217l14.725 14.713v-11.188c0-0.199 0.079-0.39 0.22-0.53s0.331-0.22 0.53-0.22c0.199 0 0.39 0.079 0.53 0.22s0.22 0.331 0.22 0.53z"></path>
</symbol>
<symbol id="ph_arrow-elbow-right-up-light" viewBox="0 0 32 32">
<path   d="M28.53 12.53c-0.141 0.14-0.331 0.219-0.53 0.219s-0.389-0.079-0.53-0.219l-4.72-4.719v16.189c0 0.199-0.079 0.39-0.22 0.53s-0.331 0.22-0.53 0.22h-18c-0.199 0-0.39-0.079-0.53-0.22s-0.22-0.331-0.22-0.53 0.079-0.39 0.22-0.53c0.141-0.141 0.331-0.22 0.53-0.22h17.25v-15.439l-4.72 4.719c-0.069 0.074-0.151 0.133-0.243 0.174s-0.191 0.063-0.292 0.065c-0.101 0.002-0.201-0.017-0.294-0.054s-0.178-0.094-0.249-0.165c-0.071-0.071-0.127-0.156-0.165-0.249s-0.056-0.193-0.054-0.294c0.002-0.101 0.024-0.2 0.065-0.292s0.1-0.175 0.174-0.243l6-6c0.141-0.14 0.331-0.219 0.53-0.219s0.389 0.079 0.53 0.219l6 6c0.14 0.141 0.219 0.331 0.219 0.53s-0.079 0.389-0.219 0.53z"></path>
</symbol>
<symbol id="ph_arrow-left-light" viewBox="0 0 32 32">
<path   d="M27.75 16c0 0.199-0.079 0.39-0.22 0.53s-0.331 0.22-0.53 0.22h-20.188l7.712 7.725c0.069 0.069 0.124 0.151 0.161 0.241s0.056 0.187 0.056 0.284c0 0.097-0.019 0.194-0.056 0.284s-0.092 0.172-0.161 0.241c-0.069 0.069-0.151 0.124-0.241 0.161s-0.187 0.057-0.284 0.057c-0.097 0-0.194-0.019-0.284-0.057s-0.172-0.092-0.241-0.161l-9-9c-0.071-0.068-0.128-0.149-0.166-0.239s-0.059-0.187-0.059-0.286c0-0.098 0.020-0.195 0.059-0.286s0.095-0.172 0.166-0.239l9-9c0.139-0.139 0.328-0.217 0.525-0.217s0.386 0.078 0.525 0.217c0.139 0.139 0.217 0.328 0.217 0.525s-0.078 0.386-0.217 0.525l-7.712 7.725h20.188c0.199 0 0.39 0.079 0.53 0.22s0.22 0.331 0.22 0.53z"></path>
</symbol>
<symbol id="ph_arrow-right-light" viewBox="0 0 32 32">
<path   d="M27.525 16.525l-9 9c-0.069 0.069-0.151 0.124-0.241 0.161s-0.187 0.057-0.284 0.057c-0.097 0-0.194-0.019-0.284-0.057s-0.172-0.092-0.241-0.161c-0.069-0.069-0.124-0.151-0.161-0.241s-0.056-0.187-0.056-0.284c0-0.098 0.019-0.194 0.056-0.284s0.092-0.172 0.161-0.241l7.712-7.725h-20.187c-0.199 0-0.39-0.079-0.53-0.22s-0.22-0.331-0.22-0.53c0-0.199 0.079-0.39 0.22-0.53s0.331-0.22 0.53-0.22h20.187l-7.712-7.725c-0.139-0.139-0.217-0.328-0.217-0.525s0.078-0.386 0.217-0.525c0.139-0.139 0.328-0.217 0.525-0.217s0.386 0.078 0.525 0.217l9 9c0.071 0.068 0.128 0.149 0.166 0.239s0.059 0.187 0.059 0.286c0 0.098-0.020 0.195-0.059 0.286s-0.095 0.172-0.166 0.239z"></path>
</symbol>
<symbol id="ph_arrow-up-left-light" viewBox="0 0 32 32">
<path   d="M24.525 24.525c-0.068 0.071-0.149 0.128-0.239 0.166s-0.187 0.059-0.286 0.059c-0.098 0-0.195-0.020-0.286-0.059s-0.172-0.095-0.239-0.166l-14.725-14.712v11.188c0 0.199-0.079 0.39-0.22 0.53s-0.331 0.22-0.53 0.22-0.39-0.079-0.53-0.22c-0.141-0.141-0.22-0.331-0.22-0.53v-13c0-0.199 0.079-0.39 0.22-0.53s0.331-0.22 0.53-0.22h13c0.199 0 0.39 0.079 0.53 0.22s0.22 0.331 0.22 0.53-0.079 0.39-0.22 0.53c-0.141 0.141-0.331 0.22-0.53 0.22h-11.188l14.712 14.725c0.071 0.068 0.128 0.149 0.166 0.239s0.059 0.187 0.059 0.286c0 0.098-0.020 0.195-0.059 0.286s-0.095 0.172-0.166 0.239z"></path>
</symbol>
<symbol id="ph_arrow-up-light" viewBox="0 0 32 32">
<path   d="M25.525 14.525c-0.068 0.071-0.149 0.128-0.239 0.166s-0.187 0.059-0.286 0.059c-0.098 0-0.195-0.020-0.286-0.059s-0.172-0.095-0.239-0.166l-7.725-7.712v20.188c0 0.199-0.079 0.39-0.22 0.53s-0.331 0.22-0.53 0.22-0.39-0.079-0.53-0.22c-0.141-0.141-0.22-0.331-0.22-0.53v-20.188l-7.725 7.712c-0.139 0.139-0.328 0.217-0.525 0.217s-0.386-0.078-0.525-0.217c-0.139-0.139-0.217-0.328-0.217-0.525s0.078-0.386 0.217-0.525l9-9c0.068-0.071 0.149-0.128 0.239-0.166s0.187-0.059 0.286-0.059c0.098 0 0.195 0.020 0.286 0.059s0.172 0.095 0.239 0.166l9 9c0.071 0.068 0.128 0.149 0.166 0.239s0.059 0.187 0.059 0.286-0.020 0.195-0.059 0.286c-0.039 0.090-0.095 0.172-0.166 0.239z"></path>
</symbol>
<symbol id="ph_arrow-up-right-light" viewBox="0 0 32 32">
<path   d="M24.75 8v13c0 0.199-0.079 0.39-0.22 0.53s-0.331 0.22-0.53 0.22-0.39-0.079-0.53-0.22c-0.141-0.141-0.22-0.331-0.22-0.53v-11.188l-14.725 14.712c-0.139 0.139-0.328 0.217-0.525 0.217s-0.386-0.078-0.525-0.217c-0.139-0.139-0.217-0.328-0.217-0.525s0.078-0.386 0.217-0.525l14.712-14.725h-11.187c-0.199 0-0.39-0.079-0.53-0.22s-0.22-0.331-0.22-0.53c0-0.199 0.079-0.39 0.22-0.53s0.331-0.22 0.53-0.22h13c0.199 0 0.39 0.079 0.53 0.22s0.22 0.331 0.22 0.53z"></path>
</symbol>
<symbol id="ph_behance-logo-light" viewBox="0 0 32 32">
<path   d="M20.25 10c0-0.199 0.079-0.39 0.22-0.53s0.331-0.22 0.53-0.22h8c0.199 0 0.39 0.079 0.53 0.22s0.22 0.331 0.22 0.53-0.079 0.39-0.22 0.53c-0.141 0.141-0.331 0.22-0.53 0.22h-8c-0.199 0-0.39-0.079-0.53-0.22s-0.22-0.331-0.22-0.53zM30.75 19c0 0.199-0.079 0.39-0.22 0.53s-0.331 0.22-0.53 0.22h-9.187c0.178 0.981 0.695 1.869 1.46 2.508s1.73 0.991 2.727 0.992c0.558 0.003 1.112-0.105 1.627-0.32s0.982-0.531 1.373-0.93c0.142-0.138 0.333-0.215 0.531-0.215s0.389 0.077 0.531 0.215c0.071 0.069 0.128 0.151 0.167 0.243s0.059 0.189 0.059 0.289-0.020 0.197-0.059 0.289c-0.039 0.091-0.096 0.174-0.167 0.243-0.941 0.94-2.18 1.524-3.504 1.654s-2.652-0.205-3.758-0.945c-1.105-0.74-1.92-1.841-2.305-3.114s-0.316-2.641 0.194-3.87c0.51-1.229 1.431-2.242 2.605-2.868s2.529-0.825 3.833-0.565c1.305 0.261 2.478 0.966 3.321 1.996s1.303 2.319 1.301 3.649zM29.187 18.25c-0.171-0.987-0.685-1.881-1.451-2.526s-1.735-0.998-2.736-0.998-1.97 0.354-2.736 0.998c-0.766 0.645-1.28 1.539-1.451 2.526h8.375zM17.25 19.75c0 1.326-0.527 2.598-1.464 3.536s-2.209 1.464-3.536 1.464h-8.25c-0.199 0-0.39-0.079-0.53-0.22s-0.22-0.331-0.22-0.53v-16c0-0.199 0.079-0.39 0.22-0.53s0.331-0.22 0.53-0.22h6.75c0.9-0 1.779 0.27 2.524 0.774s1.322 1.221 1.655 2.057c0.334 0.836 0.409 1.752 0.217 2.631s-0.644 1.68-1.297 2.3c0.991 0.335 1.852 0.972 2.462 1.822s0.938 1.87 0.938 2.916zM4.75 14.75h6c0.796 0 1.559-0.316 2.121-0.879s0.879-1.326 0.879-2.121-0.316-1.559-0.879-2.121c-0.563-0.563-1.326-0.879-2.121-0.879h-6v6zM15.75 19.75c-0.003-0.927-0.373-1.816-1.029-2.471s-1.544-1.025-2.471-1.029h-7.5v7h7.5c0.927-0.003 1.816-0.373 2.471-1.029s1.025-1.544 1.029-2.471z"></path>
</symbol>
<symbol id="ph_caret-down-light" viewBox="0 0 32 32">
<path   d="M16 22.75c-0.098 0-0.195-0.020-0.286-0.059s-0.172-0.095-0.239-0.166l-10-10c-0.069-0.069-0.124-0.151-0.161-0.241s-0.056-0.187-0.056-0.284c0-0.098 0.019-0.194 0.056-0.284s0.092-0.172 0.161-0.241c0.069-0.069 0.151-0.124 0.241-0.161s0.187-0.056 0.284-0.056c0.098 0 0.194 0.019 0.284 0.056s0.172 0.092 0.241 0.161l9.475 9.463 9.475-9.463c0.139-0.139 0.328-0.217 0.525-0.217s0.386 0.078 0.525 0.217c0.139 0.139 0.217 0.328 0.217 0.525s-0.078 0.386-0.217 0.525l-10 10c-0.068 0.071-0.149 0.128-0.239 0.166s-0.187 0.059-0.286 0.059z"></path>
</symbol>
<symbol id="ph_check-light" viewBox="0 0 32 32">
<path   d="M13 23.75c-0.098 0-0.195-0.020-0.286-0.059s-0.172-0.095-0.239-0.166l-7-7c-0.069-0.069-0.124-0.151-0.161-0.241s-0.056-0.187-0.056-0.284c0-0.098 0.019-0.194 0.056-0.284s0.092-0.172 0.161-0.241 0.151-0.124 0.241-0.161c0.090-0.037 0.187-0.057 0.284-0.057s0.194 0.019 0.284 0.057c0.090 0.037 0.172 0.092 0.241 0.161l6.475 6.463 13.475-13.463c0.139-0.139 0.328-0.217 0.525-0.217s0.386 0.078 0.525 0.217c0.139 0.139 0.217 0.328 0.217 0.525s-0.078 0.386-0.217 0.525l-14 14c-0.068 0.071-0.149 0.128-0.239 0.166s-0.187 0.059-0.286 0.059z"></path>
</symbol>
<symbol id="ph_dribbble-logo-light" viewBox="0 0 32 32">
<path   d="M28.75 16.088v-0.088c0.001-1.895-0.421-3.767-1.237-5.477s-2.003-3.218-3.476-4.41l-0.062-0.063-0.063-0.050c-2.25-1.786-5.040-2.756-7.913-2.75-1.91-0.005-3.795 0.427-5.512 1.263l-0.15 0.063c-1.742 0.869-3.263 2.123-4.448 3.667s-2.002 3.338-2.39 5.246v0.025c-0.167 0.819-0.251 1.652-0.25 2.487 0 1.981 0.463 3.934 1.35 5.705s2.176 3.31 3.762 4.495l0.125 0.1h0.025c2.173 1.589 4.795 2.447 7.487 2.45 1.444 0.004 2.877-0.241 4.237-0.725l0.075-0.025c2.45-0.886 4.571-2.499 6.079-4.624s2.331-4.659 2.359-7.264v-0.025zM27.225 15.288c-0.4-0.025-0.813-0.038-1.225-0.038-1.911-0.002-3.813 0.263-5.65 0.788-0.463-1.403-1.066-2.756-1.8-4.038l-0.063-0.088c1.912-1.126 3.633-2.548 5.1-4.213 2.152 1.961 3.456 4.682 3.638 7.588zM22.413 6.763c-1.359 1.543-2.959 2.856-4.737 3.888-1.438-2.071-3.238-3.867-5.313-5.3 1.669-0.567 3.448-0.735 5.193-0.49s3.409 0.897 4.857 1.902zM10.713 6.075c2.213 1.364 4.127 3.163 5.625 5.287-2.603 1.244-5.452 1.889-8.337 1.887-0.954-0.002-1.906-0.073-2.85-0.213 0.405-1.478 1.108-2.857 2.064-4.054s2.147-2.187 3.498-2.908zM4.75 16c0.002-0.497 0.035-0.994 0.1-1.487 1.043 0.154 2.096 0.233 3.15 0.237 3.177 0.006 6.313-0.721 9.163-2.125l0.087 0.137c0.687 1.184 1.249 2.437 1.675 3.737-1.131 0.404-2.223 0.91-3.263 1.513-2.8 1.604-5.185 3.844-6.963 6.537-1.238-1.054-2.232-2.365-2.914-3.841s-1.035-3.083-1.036-4.709zM9.9 25.45c2.268-3.438 5.568-6.068 9.425-7.512 0.36 1.481 0.541 3.001 0.537 4.525 0.005 1.434-0.154 2.865-0.475 4.263-1.578 0.5-3.246 0.645-4.886 0.425s-3.211-0.801-4.601-1.7zM21.063 26.050c0.2-1.185 0.3-2.385 0.3-3.587 0.002-1.681-0.2-3.355-0.6-4.987 1.705-0.479 3.467-0.723 5.237-0.725 0.413 0 0.813 0.013 1.225 0.038-0.139 1.945-0.779 3.821-1.859 5.444s-2.563 2.939-4.303 3.818z"></path>
</symbol>
<symbol id="ph_envelope-simple-light" viewBox="0 0 32 32">
<path   d="M28 6.25h-24c-0.199 0-0.39 0.079-0.53 0.22s-0.22 0.331-0.22 0.53v17c0 0.464 0.184 0.909 0.513 1.237s0.773 0.513 1.237 0.513h22c0.464 0 0.909-0.184 1.237-0.513s0.513-0.773 0.513-1.237v-17c0-0.199-0.079-0.39-0.22-0.53s-0.331-0.22-0.53-0.22zM26.075 7.75l-10.075 9.237-10.075-9.237h20.15zM27 24.25h-22c-0.066 0-0.13-0.026-0.177-0.073s-0.073-0.111-0.073-0.177v-15.3l10.737 9.85c0.14 0.127 0.323 0.198 0.513 0.198s0.372-0.071 0.513-0.198l10.737-9.85v15.3c0 0.066-0.026 0.13-0.073 0.177s-0.111 0.073-0.177 0.073z"></path>
</symbol>
<symbol id="ph_facebook-logo-light" viewBox="0 0 32 32">
<path   d="M28.75 16c0-2.522-0.748-4.987-2.149-7.084s-3.392-3.731-5.722-4.696-4.893-1.218-7.367-0.726c-2.473 0.492-4.745 1.706-6.528 3.489s-2.997 4.055-3.489 6.528c-0.492 2.473-0.239 5.037 0.726 7.367s2.599 4.321 4.696 5.722c2.097 1.401 4.562 2.149 7.084 2.149 3.381-0.003 6.622-1.348 9.012-3.738s3.735-5.631 3.738-9.012zM16.75 27.225v-8.475h3.25c0.199 0 0.39-0.079 0.53-0.22s0.22-0.331 0.22-0.53-0.079-0.39-0.22-0.53c-0.141-0.141-0.331-0.22-0.53-0.22h-3.25v-3.25c0.003-0.596 0.241-1.166 0.663-1.587s0.992-0.659 1.587-0.663h2c0.199 0 0.39-0.079 0.53-0.22s0.22-0.331 0.22-0.53-0.079-0.39-0.22-0.53c-0.141-0.141-0.331-0.22-0.53-0.22h-2c-0.994 0.003-1.945 0.399-2.648 1.102s-1.099 1.654-1.102 2.648v3.25h-3.25c-0.199 0-0.39 0.079-0.53 0.22s-0.22 0.331-0.22 0.53 0.079 0.39 0.22 0.53c0.141 0.141 0.331 0.22 0.53 0.22h3.25v8.475c-2.912-0.195-5.635-1.513-7.593-3.678s-2.998-5.005-2.901-7.922 1.325-5.682 3.423-7.711c2.098-2.029 4.902-3.163 7.821-3.163s5.723 1.134 7.821 3.163 3.325 4.794 3.423 7.711c0.097 2.917-0.943 5.758-2.901 7.922s-4.681 3.483-7.593 3.678z"></path>
</symbol>
<symbol id="ph_grains-slash-light" viewBox="0 0 32 32">
<path fill="#fff" style="fill: var(--color1, #fff)" d="M6.555 4.5c-0.137-0.127-0.317-0.199-0.505-0.2s-0.368 0.067-0.508 0.193c-0.139 0.125-0.226 0.298-0.245 0.485s0.034 0.373 0.147 0.523l1.638 1.801c-0.36-0.035-0.721-0.052-1.082-0.051-0.199 0-0.39 0.079-0.53 0.22s-0.22 0.331-0.22 0.53v10c0.003 2.85 1.137 5.582 3.152 7.598s4.748 3.149 7.598 3.152c1.426 0.001 2.838-0.282 4.153-0.833s2.507-1.359 3.507-2.376l1.785 1.959c0.134 0.147 0.321 0.235 0.52 0.245s0.393-0.061 0.54-0.195c0.147-0.134 0.235-0.321 0.245-0.52s-0.061-0.393-0.194-0.54l-20-21.99zM8.784 9.177l8.575 9.431c-0.558 0.755-1.015 1.58-1.359 2.454-0.746-1.887-2.011-3.525-3.647-4.725s-3.579-1.914-5.603-2.058v-5.5c0.691 0.055 1.373 0.189 2.034 0.399zM15.25 27.22c-2.315-0.191-4.473-1.245-6.048-2.953s-2.45-3.945-2.452-6.267v-2.22c2.315 0.191 4.473 1.245 6.048 2.953s2.45 3.945 2.452 6.267v2.22zM16.75 27.22v-2.22c0.002-1.876 0.574-3.707 1.64-5.25l4.257 4.684c-1.561 1.616-3.658 2.607-5.897 2.786zM26.75 8v10c0 0.966-0.129 1.927-0.385 2.859-0.044 0.158-0.138 0.298-0.268 0.398s-0.29 0.153-0.454 0.154c-0.067-0-0.134-0.009-0.199-0.026-0.095-0.026-0.184-0.071-0.262-0.131s-0.143-0.136-0.192-0.221c-0.049-0.086-0.080-0.18-0.092-0.278s-0.005-0.197 0.021-0.292c0.22-0.802 0.332-1.63 0.331-2.461v-2.22c-1.197 0.094-2.363 0.424-3.433 0.97-0.088 0.045-0.184 0.071-0.282 0.079s-0.197-0.004-0.291-0.035c-0.094-0.031-0.18-0.079-0.255-0.143s-0.136-0.142-0.181-0.23c-0.045-0.088-0.072-0.184-0.079-0.282s0.004-0.197 0.035-0.291c0.031-0.094 0.079-0.18 0.143-0.255s0.142-0.136 0.23-0.181c1.28-0.653 2.679-1.038 4.113-1.134v-5.5c-1.332 0.11-2.625 0.506-3.79 1.162s-2.175 1.555-2.96 2.637c-0.055 0.086-0.126 0.161-0.211 0.219s-0.18 0.097-0.28 0.117c-0.1 0.019-0.204 0.018-0.304-0.004s-0.194-0.064-0.277-0.124c-0.083-0.060-0.153-0.136-0.205-0.224s-0.086-0.185-0.1-0.287c-0.013-0.101-0.006-0.204 0.022-0.303s0.076-0.19 0.14-0.269c0.872-1.202 1.983-2.21 3.263-2.963-1.206-2.699-3.657-4.346-4.551-4.875-1.173 0.702-2.225 1.588-3.115 2.625-0.063 0.077-0.141 0.14-0.229 0.187s-0.184 0.075-0.283 0.084c-0.099 0.009-0.199-0.002-0.294-0.032s-0.183-0.078-0.259-0.143c-0.076-0.064-0.138-0.143-0.184-0.231s-0.072-0.185-0.080-0.284c-0.008-0.099 0.005-0.199 0.036-0.293s0.081-0.182 0.146-0.256c1.101-1.294 2.432-2.373 3.925-3.184 0.104-0.052 0.219-0.079 0.335-0.079s0.231 0.027 0.335 0.079c0.166 0.084 3.849 1.961 5.561 5.741 1.301-0.544 2.697-0.826 4.107-0.829 0.199 0 0.39 0.079 0.53 0.22s0.22 0.331 0.22 0.53z"></path>
</symbol>
<symbol id="ph_instagram-logo-light" viewBox="0 0 32 32">
<path   d="M16 10.25c-1.137 0-2.249 0.337-3.195 0.969s-1.683 1.53-2.118 2.581c-0.435 1.051-0.549 2.207-0.327 3.322s0.77 2.14 1.574 2.944 1.829 1.352 2.944 1.574c1.115 0.222 2.271 0.108 3.322-0.327s1.949-1.172 2.581-2.118c0.632-0.946 0.969-2.057 0.969-3.195 0-1.525-0.606-2.988-1.684-4.066s-2.541-1.684-4.066-1.684zM16 20.25c-0.841 0-1.662-0.249-2.361-0.716s-1.244-1.131-1.565-1.907-0.406-1.631-0.242-2.456c0.164-0.824 0.569-1.582 1.163-2.176s1.352-0.999 2.176-1.163c0.825-0.164 1.679-0.080 2.456 0.242s1.44 0.866 1.907 1.565c0.467 0.699 0.716 1.521 0.716 2.361-0.003 1.126-0.452 2.205-1.248 3.002s-1.875 1.245-3.002 1.248zM21.5 3.75h-11c-1.79 0-3.507 0.711-4.773 1.977s-1.977 2.983-1.977 4.773v11c0 1.79 0.711 3.507 1.977 4.773s2.983 1.977 4.773 1.977h11c1.79 0 3.507-0.711 4.773-1.977s1.977-2.983 1.977-4.773v-11c0-1.79-0.711-3.507-1.977-4.773s-2.983-1.977-4.773-1.977zM26.75 21.5c0 1.392-0.553 2.728-1.538 3.712s-2.32 1.538-3.712 1.538h-11c-1.392 0-2.728-0.553-3.712-1.538s-1.538-2.32-1.538-3.712v-11c0-1.392 0.553-2.728 1.538-3.712s2.32-1.538 3.712-1.538h11c1.392 0 2.728 0.553 3.712 1.538s1.538 2.32 1.538 3.712v11zM23.75 9.5c0 0.247-0.073 0.489-0.211 0.694s-0.333 0.366-0.561 0.46c-0.228 0.095-0.48 0.119-0.722 0.071s-0.465-0.167-0.64-0.342c-0.175-0.175-0.294-0.398-0.342-0.64s-0.023-0.494 0.071-0.722c0.095-0.228 0.255-0.424 0.46-0.561s0.447-0.211 0.694-0.211c0.331 0 0.649 0.132 0.884 0.366s0.366 0.552 0.366 0.884z"></path>
</symbol>
<symbol id="ph_leaf-light" viewBox="0 0 32 32">
<path   d="M27.681 5.024c-0.011-0.183-0.088-0.357-0.218-0.487s-0.303-0.208-0.487-0.218c-9.423-0.555-16.959 2.27-20.16 7.556-2.18 3.599-2.095 7.85 0.224 12.025l-2.57 2.57c-0.074 0.069-0.133 0.151-0.174 0.243s-0.063 0.191-0.065 0.292c-0.002 0.101 0.017 0.201 0.054 0.294s0.094 0.178 0.165 0.249c0.071 0.071 0.156 0.127 0.249 0.165s0.193 0.056 0.294 0.054 0.2-0.024 0.292-0.065c0.092-0.041 0.175-0.1 0.243-0.174l2.57-2.57c2.159 1.199 4.338 1.801 6.436 1.801 1.973 0.001 3.907-0.545 5.589-1.577 5.286-3.201 8.11-10.737 7.556-20.16zM19.349 23.899c-3.010 1.823-6.58 1.796-10.141-0.049l11.324-11.324c0.133-0.142 0.205-0.33 0.201-0.525s-0.082-0.38-0.219-0.517c-0.137-0.137-0.323-0.216-0.517-0.22s-0.382 0.069-0.525 0.201l-11.324 11.326c-1.845-3.561-1.875-7.125-0.049-10.141 2.835-4.679 9.579-7.225 18.125-6.869 0.35 8.54-2.196 15.285-6.875 18.119v-0.003z"></path>
</symbol>
<symbol id="ph_minus-light" viewBox="0 0 32 32">
<path   d="M27 16.75h-22c-0.199 0-0.39-0.079-0.53-0.22s-0.22-0.331-0.22-0.53 0.079-0.39 0.22-0.53c0.141-0.141 0.331-0.22 0.53-0.22h22c0.199 0 0.39 0.079 0.53 0.22s0.22 0.331 0.22 0.53-0.079 0.39-0.22 0.53c-0.141 0.141-0.331 0.22-0.53 0.22z"></path>
</symbol>
<symbol id="ph_phone-light" viewBox="0 0 32 32">
<path   d="M22 27.75c-9.787 0-17.75-7.963-17.75-17.75 0.002-1.643 0.602-3.229 1.687-4.462s2.583-2.029 4.213-2.238c0.375-0.044 0.754 0.035 1.081 0.224s0.583 0.479 0.732 0.826l2.513 5.862c0.114 0.265 0.161 0.554 0.137 0.842s-0.118 0.565-0.275 0.808l-2.087 3.175c-0.021 0.036-0.033 0.076-0.035 0.117s0.005 0.083 0.022 0.12c0.96 1.969 2.554 3.558 4.525 4.513 0.038 0.017 0.080 0.024 0.122 0.019s0.081-0.020 0.115-0.045l3.137-2.087c0.24-0.161 0.517-0.26 0.806-0.286s0.579 0.021 0.844 0.136l5.863 2.513c0.347 0.148 0.637 0.405 0.826 0.732s0.268 0.706 0.224 1.081c-0.21 1.629-1.005 3.127-2.238 4.213s-2.819 1.685-4.462 1.687zM10.363 4.787h-0.025c-1.266 0.166-2.429 0.786-3.272 1.745s-1.311 2.191-1.315 3.468c0.003 4.309 1.716 8.44 4.763 11.487s7.178 4.76 11.487 4.763c1.277-0.004 2.509-0.472 3.467-1.315s1.579-2.006 1.745-3.272c0.004-0.052-0.008-0.104-0.035-0.149s-0.067-0.080-0.115-0.101l-5.863-2.512c-0.039-0.015-0.081-0.020-0.122-0.016s-0.081 0.018-0.116 0.041l-3.125 2.087c-0.253 0.166-0.544 0.265-0.846 0.287s-0.604-0.034-0.879-0.162c-2.274-1.107-4.113-2.941-5.225-5.213-0.13-0.271-0.188-0.571-0.168-0.871s0.116-0.59 0.281-0.842l2.075-3.175c0.025-0.034 0.040-0.074 0.045-0.115s-0.002-0.084-0.020-0.122l-2.513-5.862c-0.019-0.044-0.051-0.081-0.090-0.108s-0.087-0.041-0.135-0.042z"></path>
</symbol>
<symbol id="ph_plus-light" viewBox="0 0 32 32">
<path   d="M27.75 16c0 0.199-0.079 0.39-0.22 0.53s-0.331 0.22-0.53 0.22h-10.25v10.25c0 0.199-0.079 0.39-0.22 0.53s-0.331 0.22-0.53 0.22-0.39-0.079-0.53-0.22c-0.141-0.141-0.22-0.331-0.22-0.53v-10.25h-10.25c-0.199 0-0.39-0.079-0.53-0.22s-0.22-0.331-0.22-0.53 0.079-0.39 0.22-0.53c0.141-0.141 0.331-0.22 0.53-0.22h10.25v-10.25c0-0.199 0.079-0.39 0.22-0.53s0.331-0.22 0.53-0.22 0.39 0.079 0.53 0.22c0.141 0.141 0.22 0.331 0.22 0.53v10.25h10.25c0.199 0 0.39 0.079 0.53 0.22s0.22 0.331 0.22 0.53z"></path>
</symbol>
<symbol id="ph_shopping-cart-light" viewBox="0 0 32 32">
<path   d="M27.576 7.52c-0.070-0.085-0.159-0.152-0.258-0.199s-0.208-0.071-0.318-0.071h-20.375l-0.646-3.563c-0.073-0.403-0.286-0.768-0.601-1.031s-0.712-0.407-1.122-0.406h-2.256c-0.199 0-0.39 0.079-0.53 0.22s-0.22 0.331-0.22 0.53c0 0.199 0.079 0.39 0.22 0.53s0.331 0.22 0.53 0.22h2.25c0.059-0.001 0.117 0.019 0.163 0.057s0.077 0.090 0.087 0.148l3.189 17.538c0.101 0.559 0.374 1.074 0.78 1.471-0.491 0.392-0.857 0.919-1.055 1.515s-0.219 1.237-0.060 1.845c0.159 0.608 0.49 1.157 0.955 1.58s1.041 0.703 1.661 0.805c0.62 0.102 1.256 0.023 1.832-0.229s1.066-0.665 1.411-1.19c0.346-0.525 0.532-1.138 0.536-1.766s-0.174-1.244-0.512-1.773h6.527c-0.389 0.608-0.564 1.329-0.498 2.047s0.369 1.395 0.862 1.922c0.493 0.527 1.147 0.875 1.86 0.989s1.443-0.012 2.076-0.359 1.132-0.895 1.419-1.557c0.287-0.662 0.346-1.401 0.166-2.1s-0.586-1.319-1.157-1.761c-0.571-0.442-1.272-0.682-1.994-0.681h-12.104c-0.293 0-0.576-0.103-0.801-0.29s-0.377-0.448-0.429-0.736l-0.45-2.474h14.796c0.644 0 1.268-0.226 1.762-0.638s0.829-0.986 0.944-1.619l1.519-8.359c0.020-0.108 0.015-0.219-0.013-0.325s-0.079-0.205-0.149-0.289zM12.25 25.5c0 0.346-0.103 0.684-0.295 0.972s-0.466 0.512-0.785 0.645-0.672 0.167-1.011 0.1c-0.339-0.068-0.651-0.234-0.896-0.479s-0.411-0.557-0.479-0.896-0.033-0.691 0.1-1.011c0.132-0.32 0.357-0.593 0.645-0.785s0.626-0.295 0.972-0.295c0.464 0 0.909 0.184 1.237 0.513s0.513 0.773 0.513 1.237zM24.25 25.5c0 0.346-0.103 0.684-0.295 0.972s-0.466 0.512-0.785 0.645c-0.32 0.132-0.672 0.167-1.011 0.1s-0.651-0.234-0.896-0.479c-0.245-0.245-0.411-0.557-0.479-0.896s-0.033-0.691 0.1-1.011c0.132-0.32 0.357-0.593 0.645-0.785s0.626-0.295 0.972-0.295c0.464 0 0.909 0.184 1.237 0.513s0.513 0.773 0.513 1.237zM24.743 16.224c-0.052 0.288-0.204 0.549-0.429 0.736s-0.508 0.29-0.801 0.29h-15.069l-1.545-8.5h19.202l-1.359 7.474z"></path>
</symbol>
<symbol id="ph_twitter-logo-light" viewBox="0 0 32 32">
<path   d="M30.688 8.713c-0.057-0.136-0.152-0.253-0.274-0.335s-0.266-0.127-0.413-0.128h-3.95c-0.488-0.897-1.206-1.647-2.081-2.175s-1.873-0.812-2.894-0.825c-1.534-0.007-3.008 0.595-4.1 1.672s-1.712 2.544-1.725 4.078v1.088c-5.3-1.262-9.675-5.575-9.725-5.612-0.096-0.095-0.217-0.162-0.348-0.195s-0.269-0.028-0.399 0.011c-0.129 0.040-0.246 0.114-0.337 0.214s-0.153 0.224-0.179 0.356c-1.087 5.95 0.7 9.925 2.388 12.213 0.895 1.225 1.994 2.286 3.25 3.137-1.938 2.35-5.125 3.575-5.162 3.587-0.106 0.039-0.202 0.103-0.281 0.185s-0.136 0.182-0.169 0.29c-0.035 0.106-0.046 0.218-0.031 0.329s0.056 0.216 0.118 0.309c0.125 0.187 1.35 1.837 5.625 1.837 8.713 0 16-6.737 16.7-15.387l3.825-3.837c0.108-0.102 0.182-0.235 0.211-0.38s0.012-0.297-0.049-0.432zM25.437 12.5c-0.13 0.13-0.206 0.304-0.212 0.488-0.513 8-7.2 14.262-15.225 14.262-1.738 0-2.85-0.3-3.513-0.6 1.413-0.712 3.725-2.112 5.138-4.237 0.056-0.088 0.094-0.187 0.111-0.29s0.013-0.209-0.011-0.31c-0.027-0.104-0.075-0.201-0.142-0.285s-0.151-0.153-0.246-0.202c-0.025 0-1.9-0.975-3.525-3.2-1.938-2.65-2.7-5.887-2.275-9.625 1.825 1.55 5.762 4.475 10.338 5.238 0.108 0.020 0.219 0.017 0.325-0.011s0.205-0.079 0.288-0.149c0.084-0.071 0.151-0.159 0.196-0.259s0.068-0.208 0.066-0.318v-2c0.010-1.133 0.468-2.216 1.273-3.012s1.894-1.241 3.027-1.238c0.819 0.012 1.617 0.258 2.299 0.71s1.221 1.091 1.551 1.84c0.057 0.135 0.153 0.249 0.275 0.33s0.266 0.122 0.412 0.12h2.6l-2.75 2.75z"></path>
</symbol>
</defs>
</svg>
